<mxfile host="app.diagrams.net" modified="2022-09-14T04:27:50.165Z" agent="5.0 (Macintosh; Intel Mac OS X 10_15_7) AppleWebKit/537.36 (KHTML, like Gecko) Chrome/105.0.0.0 Safari/537.36" etag="ux4WuDrEwTvj1pFuBUeV" version="20.2.7" type="github">
  <diagram id="Xm4mKkBFlQzQ2s4cjQUF" name="Page-1">
    <mxGraphModel dx="1720" dy="1047" grid="1" gridSize="10" guides="1" tooltips="1" connect="1" arrows="1" fold="1" page="1" pageScale="1" pageWidth="850" pageHeight="1100" math="0" shadow="0">
      <root>
        <mxCell id="0" />
        <mxCell id="1" parent="0" />
        <mxCell id="R13urv6WYMFcHJ1vU4wi-1" value="&lt;span style=&quot;font-size: 22px;&quot;&gt;correctNumber = ?&lt;/span&gt;" style="rounded=1;whiteSpace=wrap;html=1;fillColor=#D8CCDE;strokeColor=#9673a6;perimeterSpacing=1;glass=0;arcSize=21;strokeWidth=2;" vertex="1" parent="1">
          <mxGeometry x="173" y="292" width="220" height="80" as="geometry" />
        </mxCell>
        <mxCell id="R13urv6WYMFcHJ1vU4wi-2" value="" style="endArrow=classic;html=1;rounded=0;strokeWidth=4;" edge="1" parent="1">
          <mxGeometry width="50" height="50" relative="1" as="geometry">
            <mxPoint x="282.3699999999999" y="232" as="sourcePoint" />
            <mxPoint x="282" y="282" as="targetPoint" />
            <Array as="points">
              <mxPoint x="282.37" y="262" />
              <mxPoint x="282.37" y="272" />
            </Array>
          </mxGeometry>
        </mxCell>
        <mxCell id="R13urv6WYMFcHJ1vU4wi-3" value="" style="endArrow=classic;html=1;rounded=0;strokeWidth=4;" edge="1" parent="1">
          <mxGeometry width="50" height="50" relative="1" as="geometry">
            <mxPoint x="393" y="332.5" as="sourcePoint" />
            <mxPoint x="443" y="332" as="targetPoint" />
            <Array as="points" />
          </mxGeometry>
        </mxCell>
        <mxCell id="R13urv6WYMFcHJ1vU4wi-4" value="&lt;font style=&quot;font-size: 22px;&quot;&gt;Start&lt;/font&gt;" style="rounded=1;whiteSpace=wrap;html=1;fillColor=#e1d5e7;strokeColor=#9673a6;perimeterSpacing=1;glass=0;arcSize=37;strokeWidth=2;" vertex="1" parent="1">
          <mxGeometry x="173" y="152" width="220" height="80" as="geometry" />
        </mxCell>
        <mxCell id="R13urv6WYMFcHJ1vU4wi-6" value="&lt;font style=&quot;font-size: 22px;&quot;&gt;Input Number&lt;/font&gt;" style="shape=parallelogram;perimeter=parallelogramPerimeter;whiteSpace=wrap;html=1;fixedSize=1;fillColor=#e1d5e7;strokeColor=#9673a6;strokeWidth=2;perimeterSpacing=1;" vertex="1" parent="1">
          <mxGeometry x="449" y="294" width="226" height="76" as="geometry" />
        </mxCell>
        <mxCell id="R13urv6WYMFcHJ1vU4wi-8" value="" style="endArrow=classic;html=1;rounded=0;strokeWidth=4;" edge="1" parent="1">
          <mxGeometry width="50" height="50" relative="1" as="geometry">
            <mxPoint x="561.47" y="370" as="sourcePoint" />
            <mxPoint x="561.8800000000001" y="420" as="targetPoint" />
            <Array as="points" />
          </mxGeometry>
        </mxCell>
        <mxCell id="R13urv6WYMFcHJ1vU4wi-9" value="Is number within the range of 1 to 10?" style="rhombus;whiteSpace=wrap;html=1;fontSize=22;strokeWidth=2;fillColor=#e1d5e7;strokeColor=#9673a6;perimeterSpacing=1;" vertex="1" parent="1">
          <mxGeometry x="447" y="428" width="230" height="160" as="geometry" />
        </mxCell>
        <mxCell id="R13urv6WYMFcHJ1vU4wi-10" value="" style="endArrow=classic;html=1;rounded=0;strokeWidth=4;" edge="1" parent="1">
          <mxGeometry width="50" height="50" relative="1" as="geometry">
            <mxPoint x="449" y="507.5199999999999" as="sourcePoint" />
            <mxPoint x="399" y="507.46999999999997" as="targetPoint" />
            <Array as="points" />
          </mxGeometry>
        </mxCell>
        <mxCell id="R13urv6WYMFcHJ1vU4wi-11" value="&lt;span style=&quot;font-size: 22px;&quot;&gt;Output: &quot;Too high! Your number must be between 1 and 10&quot;&lt;/span&gt;" style="rounded=1;whiteSpace=wrap;html=1;fillColor=#D8CCDE;strokeColor=#9673a6;perimeterSpacing=1;glass=0;arcSize=21;strokeWidth=2;" vertex="1" parent="1">
          <mxGeometry x="173" y="468" width="220" height="80" as="geometry" />
        </mxCell>
        <mxCell id="R13urv6WYMFcHJ1vU4wi-12" value="No" style="text;html=1;strokeColor=none;fillColor=none;align=center;verticalAlign=middle;whiteSpace=wrap;rounded=0;fontSize=22;" vertex="1" parent="1">
          <mxGeometry x="399" y="468" width="60" height="30" as="geometry" />
        </mxCell>
        <mxCell id="R13urv6WYMFcHJ1vU4wi-13" value="" style="endArrow=classic;html=1;rounded=0;strokeWidth=4;" edge="1" parent="1">
          <mxGeometry width="50" height="50" relative="1" as="geometry">
            <mxPoint x="561.47" y="588" as="sourcePoint" />
            <mxPoint x="561.8799999999999" y="638" as="targetPoint" />
            <Array as="points" />
          </mxGeometry>
        </mxCell>
        <mxCell id="R13urv6WYMFcHJ1vU4wi-14" value="Yes" style="text;html=1;strokeColor=none;fillColor=none;align=center;verticalAlign=middle;whiteSpace=wrap;rounded=0;fontSize=22;" vertex="1" parent="1">
          <mxGeometry x="559" y="588" width="60" height="30" as="geometry" />
        </mxCell>
        <mxCell id="R13urv6WYMFcHJ1vU4wi-15" value="Is it = &lt;br&gt;correctNumber?" style="rhombus;whiteSpace=wrap;html=1;fontSize=22;strokeWidth=2;fillColor=#e1d5e7;strokeColor=#9673a6;perimeterSpacing=1;" vertex="1" parent="1">
          <mxGeometry x="447" y="648" width="230" height="160" as="geometry" />
        </mxCell>
        <mxCell id="R13urv6WYMFcHJ1vU4wi-16" value="No" style="text;html=1;strokeColor=none;fillColor=none;align=center;verticalAlign=middle;whiteSpace=wrap;rounded=0;fontSize=22;" vertex="1" parent="1">
          <mxGeometry x="399" y="688" width="60" height="30" as="geometry" />
        </mxCell>
        <mxCell id="R13urv6WYMFcHJ1vU4wi-17" value="" style="endArrow=classic;html=1;rounded=0;strokeWidth=4;" edge="1" parent="1">
          <mxGeometry width="50" height="50" relative="1" as="geometry">
            <mxPoint x="449.0000000000002" y="727.52" as="sourcePoint" />
            <mxPoint x="399" y="727.47" as="targetPoint" />
            <Array as="points" />
          </mxGeometry>
        </mxCell>
        <mxCell id="R13urv6WYMFcHJ1vU4wi-18" value="&lt;span style=&quot;font-size: 22px;&quot;&gt;Output: &quot;Bad luck! The correct number is&quot; correctNumber&lt;br&gt;&lt;/span&gt;" style="rounded=1;whiteSpace=wrap;html=1;fillColor=#D8CCDE;strokeColor=#9673a6;perimeterSpacing=1;glass=0;arcSize=21;strokeWidth=2;" vertex="1" parent="1">
          <mxGeometry x="173" y="688" width="220" height="80" as="geometry" />
        </mxCell>
        <mxCell id="R13urv6WYMFcHJ1vU4wi-19" value="" style="endArrow=classic;html=1;rounded=0;strokeWidth=4;" edge="1" parent="1">
          <mxGeometry width="50" height="50" relative="1" as="geometry">
            <mxPoint x="561.47" y="808" as="sourcePoint" />
            <mxPoint x="561.8799999999999" y="858" as="targetPoint" />
            <Array as="points" />
          </mxGeometry>
        </mxCell>
        <mxCell id="R13urv6WYMFcHJ1vU4wi-21" value="Yes" style="text;html=1;strokeColor=none;fillColor=none;align=center;verticalAlign=middle;whiteSpace=wrap;rounded=0;fontSize=22;" vertex="1" parent="1">
          <mxGeometry x="559" y="808" width="60" height="30" as="geometry" />
        </mxCell>
        <mxCell id="R13urv6WYMFcHJ1vU4wi-22" value="&lt;span style=&quot;font-size: 22px;&quot;&gt;Output: &quot;Well done! Your guessed correctly&quot;&lt;br&gt;&lt;/span&gt;" style="rounded=1;whiteSpace=wrap;html=1;fillColor=#D8CCDE;strokeColor=#9673a6;perimeterSpacing=1;glass=0;arcSize=21;strokeWidth=2;" vertex="1" parent="1">
          <mxGeometry x="452" y="868" width="220" height="80" as="geometry" />
        </mxCell>
        <mxCell id="R13urv6WYMFcHJ1vU4wi-23" value="" style="endArrow=classic;html=1;rounded=0;strokeWidth=4;" edge="1" parent="1">
          <mxGeometry width="50" height="50" relative="1" as="geometry">
            <mxPoint x="282.71" y="468" as="sourcePoint" />
            <mxPoint x="449" y="388" as="targetPoint" />
            <Array as="points" />
          </mxGeometry>
        </mxCell>
        <mxCell id="R13urv6WYMFcHJ1vU4wi-24" value="" style="endArrow=classic;html=1;rounded=0;strokeWidth=4;" edge="1" parent="1">
          <mxGeometry width="50" height="50" relative="1" as="geometry">
            <mxPoint x="452.0000000000002" y="907.71" as="sourcePoint" />
            <mxPoint x="402" y="907.6600000000001" as="targetPoint" />
            <Array as="points" />
          </mxGeometry>
        </mxCell>
        <mxCell id="R13urv6WYMFcHJ1vU4wi-25" value="" style="endArrow=classic;html=1;rounded=0;strokeWidth=4;" edge="1" parent="1">
          <mxGeometry width="50" height="50" relative="1" as="geometry">
            <mxPoint x="282.66" y="768" as="sourcePoint" />
            <mxPoint x="283" y="858" as="targetPoint" />
            <Array as="points" />
          </mxGeometry>
        </mxCell>
        <mxCell id="R13urv6WYMFcHJ1vU4wi-26" value="&lt;font style=&quot;font-size: 22px;&quot;&gt;End&lt;/font&gt;" style="rounded=1;whiteSpace=wrap;html=1;fillColor=#e1d5e7;strokeColor=#9673a6;perimeterSpacing=1;glass=0;arcSize=37;strokeWidth=2;" vertex="1" parent="1">
          <mxGeometry x="173" y="868" width="220" height="80" as="geometry" />
        </mxCell>
      </root>
    </mxGraphModel>
  </diagram>
</mxfile>
